<svg xmlns="http://www.w3.org/2000/svg" width="4795" height="6782" viewBox="0 0 4795 6782">
  <defs>
    <style>
      .cls-1 {
        fill-rule: evenodd;
      }
    </style>
  </defs>
  <path id="Color_Fill_1" data-name="Color Fill 1" class="cls-1" d="M1522,2934q6.495-39.495,13-79c4.04-23.24-8.57-49.6-4-78l12-108q1.5-60.99,3-122,3.495-29.49,7-59c5.3-18.38,13.59-31.17,17-54,3.47-23.26-11.38-44.19-8-67,6.8-45.81,28.41-83.68,41-125q6.495-25.5,13-51c1.43-8.59-4.07-13.47-2-23,6.73-30.98,17.54-68.75,29-95q3.495-22.005,7-44c8.84-39.54,11.08-87.07,19-129,8.06-42.66,3.26-82.6,14-120q29.49-60.495,59-121,8.505-13.995,17-28l3-57c5.2-26.39,15.76-47.3,27-68q16.005-29.49,32-59c6.72-7.7,28.66-11.78,28-23,6.39-28.08-21.21-55.54,5-75,19.41-14.41,102.5-.61,133,4l40-6,54-3c22.82-8.35,52.25-14.33,79-21q7.005-12,14-24c-21.18-9.67-90.06-63.47-76-96,4.03-9.31,10.77-9.45,20-14q9.495-7.5,19-15,36.495-21,73-42,3.495-13.5,7-27c11-25.71,20.15-54.79,32-82q30.99-62.495,62-125c35.5-69.367,64.37-139.643,103-204,5.04-8.4,3.62-16.408,6-28,2.77-13.46,10.52-29.9,18-40,14.39-19.436,104.5-47.5,132-62l54-39q8.505-4,17-8c13.92-12.058,21.25-33.807,54-27,29.31,6.091,16.74,21.393,32,33l44,9q36.99,12,74,24c20.58,6.411,39.87-23.779,64-6,19.19,14.14,19.66,48.128,25,76v25q24,65.493,48,131c5.98,13.5,20.97,21.126,25,41q-3.495,24.5-7,49,1.005,17,2,34-6,45-12,90-9,65.49-18,131c0.96,13.93-17.98,67-9,75,9.37,24.75,30.11,42.18,43,63q15,27.99,30,56c4.82,5.87,12.96,8.96,17,16,15.09,26.31-2.77,62.17-16,80,59.3-5.14,116.81,10.56,97,73,27.16,5.61,32.48,32.42,45,53,29.09,47.81,53.53,95.35,87,138,52.57,66.99,101.51,144.23,139,226,16.23,35.39,28.42,68.71,47,103,31.84,58.76,84.56,85.74,102,162,9.64,42.15-3.13,86.79,4,132,5.89,37.36,12.62,100.29,6,142-3.47,21.88,2.09,42.53-1,62l-3,102c-7.7,42.3-10.97,126.34-3,169,58.13,29.89,36.39,66.09-15,85-0.17,20.33-9.79,27.11-15,41l-9,48c-2.88,13.71,2.71,27.14,1,39-1.73,11.99-10.38,21.46-7,39q4.5,19.995,9,40c-1.73,12.91-10.34,20.85-14,30q-3.495,13.005-7,26c-10.82,19.08-33.85,23.02-52,35q-28.5,22.995-57,46l-24,3c-10.92,3.49-21.5,10.64-37,13q-13.995-1.995-28-4c-25.15,2.51-61.52,8.73-84,0,13.71,69.83,7.42,151.02,19,220,3.16,18.84-7.36,29.54-5,46,16.56,115.59,14.08,235.63,33,345q2.505,36,5,72v53c5.59,28.56,2,67.92,2,100,0,42.25,3.42,82.12,10,119q3.495,37.5,7,75c14.18,42.24,30.03,80.61,43,128,2.16,7.9,8.27,18.52,6,30-6.03,30.53-35.46,65.42-56,82,6.7,19.15-.97,32.48-11,43,4.27,20.99-.46,47.57-9,60q-6,6.495-12,13v15q-4.5,16.995-9,34c-12.11,27.66-22.61,57.84-35,87q-5.505,9.495-11,19c-33.94,116.18-32.09,243.31-56,369v26c-8.25,40.86-7.12,94.67-15,133v31c-6.16,30.54-3.16,67.96-9,104-11.94,73.63-7.93,178.91,6,247q4.005,36,8,72c7.16,10.34,21.42,12.16,27,25,9.65,22.2,6.49,49.31,10,75q-1.005,7.995-2,16c6.48,22.37,42.48,45.24,57,62q1.995,4.5,4,9c7.07,6.93,64.79,22.65,79,27,34.2,10.46,73.45,24.16,109,33,29.41,7.32,55.46,6.5,83,18,39.22,16.38,67.1,66.15,76,113,12.05,63.46-36.68,107.44-73,123q-27.99,6-56,12c-20.89,4.97-57.72.06-81,4-38.34,6.5-90.81-2.07-123-10h-17c-41.97-7.12-89.89-19.63-126-35-10.77-4.58-15.59-16.03-25-21-31.9-8.22-37.73,17.08-65,22-60.84,10.99-179.2-10.69-207-49-5.42-7.47-4.04-16.43-7-27-3.47-12.41-15.31-32.88-13-48,2.37-15.52,11.53-23.13,17-34q10.005-30.99,20-62,8.505-33.495,17-67-4.005-13.995-8-28,1.005-19.995,2-40c-1.06-5.52-4.6-12.78-3-21,10.47-53.95,35.88-94.7,33-160-3.46-78.54,7.61-180.21-7-261q-9.495-57.99-19-116c-13.31-53.2-33.46-106.92-46-165-13.06-60.48-6.65-130.21-19-193q1.005-25.5,2-51c4.76-75.91,10.35-133.69,28-197,7.45-26.71,24.76-62.31,29-86q-3-12.495-6-25,3-25.995,6-52c-29.09-25.18-46.01-63.53-66-98-12.02-20.73-29.49-31.46-35-61-2.75-14.74,4.84-27.07,7-39q1.995-26.49,4-53c10.11-44.1,35.01-93.6,25-149-5.96-32.97-5.37-72.84-12-109q-6.495-22.995-13-46-11.505-63-23-126c-5.41-26.65-3.99-49.43-10-74q-18.495-67.995-37-136,2.505-27.495,5-55c-4.16-19.59-13.07-37.78-18-59q-8.505-4.005-17-8c-16.74,19.21-12.65,45.19-17,71-9.24,54.82-25.18,107.64-40,158q-16.5,48.495-33,97-8.505,14.505-17,29-7.995,30.495-16,61-13.995,33-28,66-19.5,66.99-39,134c-6.06,19.53-1.98,40.62-7,61q-16.995,64.5-34,129-1.005,30.99-2,62c-3.15,18.86-4.51,38.51-10,57-4.77,16.06-15.6,25.6-26,36q-12.495,13.005-25,26c-23.89,17.54-56.68,23.84-84,38l-39,27c-7.13,9.97-8.05,22.61-15,32-4.9,6.63-21.14,12.62-24,17-7.8,11.96-8.81,25.23-14,39-6.37,16.91-19.69,31.02-26,52q-3.495,27.99-7,56-9,42.99-18,86c-19.72,70.44-40.37,140.49-67,206-16.14,39.69-34.77,78.88-46,122-22.47,86.27-30.53,171.76-49,261-8.29,40.07-6.22,84.19-15,121q-0.495,45-1,90c-5.53,30.53,2.31,97.02,7,120,3.49,17.1-4.83,42.3,5,50,11.88,31.33,3.12,62.26-4,91q5.505,23.505,11,47c3.71,11.38,12.41,25.4,17,36,5.77,13.33,3.95,26.71,10,41,7.42,17.51,31.49,30.53,45,43,10.01,9.24,8.43,22.79,16,35,7.42,11.97,22.95,19.31,30,31,9.9,16.42,6.22,72.91-1,91-17.99,45.07-146.07,62.57-222,52-61.57-8.57-143.05-38.77-170-86l-12-36c-43.84,7.51-50.95-23.46-51-66q-0.495-15.495-1-31c3.44-16.79,15.14-24.84,20-38q6.495-42.99,13-86-1.5-11.505-3-23l6-18c-1.79-15.09-15.63-30.82-19-48-2.59-13.2,7.44-21.42,6-31-2.6-17.3-19.77-31.61-15-55,4.16-20.39,18.14-32.29,28-47,11.11-16.57,22.04-38.51,28-59,21.04-72.32,19.96-154.62,33-235q2.505-36.99,5-74c3.63-23.1-7.52-49.39-3-76,10.14-59.76-2.82-116.2-9-168-8.43-70.64-7.65-169.39,4-234,14.67-81.31,34.39-152.91,63-220,6.99-16.39,5.49-35.24,12-52,19.15-49.29,50.48-92.01,55-153-28.96-23.74-53.1-125.35-71-166-7.62-17.3-6.2-38.2,3-53,13.69-22.04,35.94-35.36,51-55a559.535,559.535,0,0,0,44-66c4.73-8.32,14.73-18.79,15-28-23.97-11.72-62.71-69.03-74-95-6.15-14.15-6.43-27.97-12-44-6.08-17.52-19.7-45.71-5-66,19.06-26.3,80.04-1.29,117-14,17-5.85,49.66-15.63,60-29,12.32-15.93,16.3-109.61,21-140q-141.99-120.495-284-241c-29.01,15.78-21.14,17.32-56,7-9.49-2.81-22.8,1.73-32-2q-10.5-6.495-21-13c-16.47-4.99-27.86-3.33-40-11q-7.005-7.995-14-16c-12.74-7.85-23.47-4.45-32-16q-7.995-15.495-16-31c-7.42-8.47-21-10.63-28-20q-6.495-14.505-13-29c-10.91-11.26-29.36-16.58-36-32-13.09-30.37-4.88-59.52,6-82q-50.49-43.5-101-87c-21.46-13.06-77.64-31.56-89-50-7.14-11.59-7.14-31.46-10-45-8.13-38.45,27.63-57.16,46-71l43-31c59.36-25.68,125.45,54.74,160,81C1469.89,2962.57,1474.05,2930.3,1522,2934ZM2681,520c-11.21,7.244-17.61,17.52-28,25q-46.5,29-93,58c-21.86,10.769-82.99,24.1-97,38-12.07,11.981-11.07,35.739-18,53q-11.505,24.5-23,49c-50.29,92.211-103.79,196.1-146,294-13.08,30.34-23.83,61.32-35,91l-6,24q-7.5,4.005-15,8c-28.38,16.74-72.32,35.01-92,61,20.55,31.36,67.4,41.6,84,77-0.68,2.59-28.44,48.9-30,50l-40,9q-24.99,7.995-50,16-31.5,1.995-63,4c-13.51,2.62-32.12,7.87-49,5-20.93-3.57-89.55-12.58-103-8-2,1.67-4,3.33-6,5,2.21,17.94,18.4,41.04,14,61-4.55,20.67-35.34,27.31-48,41-4.04,4.37-8.13,14.26-11,19-12.96,21.4-28.49,49.02-34,75-3.96,18.64,2.95,46.71-3,65q-9.495,15-19,30-16.005,33.495-32,67c-9.18,20.76-23.41,37.99-29,63q-12,104.985-24,210c-10.89,51-17.83,108.96-34,156q-4.995,33-10,66c-13.97,46.12-28.12,86.2-42,126v20c-5.9,34.23,5.06,70.34-3,108-7.23,33.8-5.55,68.83-12,106q-6.495,75.495-13,151-1.5,44.49-3,89c-10.51,43.85-10.82,89.28-20,133-13.64-3.28-30.93-4.43-41,6q1.995,34.5,4,69c2.34,5.58,6.86,3.81,8,13-9.79,2.64-16.34,13.55-14,25l-26-23c-32.73-22.79-60.63-50.19-94-73-11.94-8.16-33.46-31.29-56-26-16.49,3.87-32.59,21.48-45,31-9.27,7.11-24.46,15.63-29,27-7.48,18.73,9.89,48.04,21,56q15.495,6,31,12c48.93,27.66,90.17,66.81,133,101,7.1,5.67,16.15,9.03,21,17-4.96,14.03-22.06,65.26-16,81,7.16,15.67,26.98,20.15,36,34,6.74,10.35,6.07,23.02,16,30q9.495,4.005,19,8,8.505,17.505,17,35c5.98,8.32,20.29,6.26,29,12,6.7,4.42,7.71,14.56,16,18,9.69,4.02,19.51,1.38,31,5,22.46,7.07,16.86,23.05,45,5,3.77,3.47,14.62,10.02,19,9,14.68-2.57,20.68-12.52,35-15q155.985,132.99,312,266c-0.53,41.84-12.96,151.52-29,173-11,14.72-59.84,32.11-81,38-24.38,6.78-75.15-3.24-94,5-1.08,53.06,37.6,108.74,63,141,11.4,14.48,30.56,23.85,40,40-19.55,40.59-43.33,79.32-70,113-15.81,19.96-44.16,35.86-54,61-5.59,14.29,11.44,38.38,16,50,19.33,49.29,27.61,105.11,63,138q-3,11.505-6,23c-1.9,10.11,4.73,16.75,3,24q-10.005,17.505-20,35-17.505,41.49-35,83-4.995,22.5-10,45c-26.93,69.46-49.73,138.75-65,221-11.29,60.81-14.64,174.06-4,239,8.83,53.92,18.12,119.62,8,182q1.5,30.495,3,61-3.495,49.995-7,100c-12.09,72.28-14.67,145.35-31,212-5.86,23.93-18.07,47.92-30,67-6.75,10.8-24.84,27.07-26,41q10.005,27,20,54-5.505,8.505-11,17c4.63,17.56,18.72,39.2,22,55,2.27,10.94-4.91,19.7-7,26q0.495,10.005,1,20-7.5,48.99-15,98-9,12.495-18,25,1.005,27.99,2,56c1.08,1.9,8.97,7.8,11,9,9.46,3.43,18.8-4.28,27-1,2.2,7.5,7.1,11.16,10,17q4.995,16.995,10,34c17.48,27.79,79.19,61.06,117,69,12.71,2.67,23.9.04,34,2,47.79,9.25,167.02-3.18,185-30,6.45-9.61,7.13-25.81,5-38-1.59-9.08,1.02-19.52-2-26-9.37-4.19-27.15-26.66-31-36q-3-10.995-6-22-24.495-22.005-49-44c-5.96-8.38-5.87-17.19-10-28-11.84-30.98-27.5-62.57-34-99-5.56-31.16,18.91-61.57,8-91q-7.995-8.505-16-17,4.005-11.505,8-23-3-22.995-6-46l-3-66q0.495-24.495,1-49c-6.45-51.19.91-121.05,12-165q3-31.995,6-64c21.37-83.76,25.59-169.25,49-250q16.995-43.5,34-87,30.99-89.49,62-179c12.23-40.11,20.74-79.99,30-123q6.495-40.995,13-82,7.005-18.495,14-37c2.83-3.34,6.98-3.33,9-8,4.57-10.6,13.08-46.95,20-52,19.97-10.75,18.7-21.03,31-39l40-31c44.55-26.1,102.2-36.35,130-79,19.87-30.48,9.04-78.54,17-123,8.44-47.16,22.83-88.88,34-133,3.88-15.33-.39-28.53,3-45,15.15-73.7,42.34-149.73,69-214q12-41.49,24-83,15-36.495,30-73c20.83-53.28,34.74-109.53,46-171,8.69-47.42,12.77-103.51,48-124q27,13.995,54,28c-0.92,28.46,12.31,47.45,18,72q-2.505,26.49-5,53c7.57,40.08,23.63,84.16,34,124q12.495,80.985,25,162c9.84,47.41,19.73,94.18,29,145,12.7,69.62,4.79,137.47-11,195-7.15,26.06-6.23,58.06-12,89-1.29,6.93-6.96,13.12-5,22,4.12,18.67,19.86,29.05,29,43,27.46,41.88,41.39,69.89,76,105-4.1,12.42-12.76,43.28-9,59,2.46,10.29,11.73,12.65,6,32-9.82,33.16-25.18,67.41-34,103-21.82,88.1-36.94,209.42-18,314l6,75c8.23,41.98,13.9,85.81,27,124l24,69c16.75,63.3,12.66,129.45,24,199q0.495,33,1,66c4.67,29.46,5.03,96.04,0,127q-0.495,27.495-1,55-9.495,25.995-19,52c-3.24,16.01,7.3,22.33,5,33a29.669,29.669,0,0,0-15,5c-5.22,19.08-2.85,51.78,13,58,0.24,45.05-19.44,88.01-31,125l-15,57c-2.3,5.38-9.75,9.9-13,16q7.005,29.49,14,59,8.505,4.995,17,10c23.06,13.82,47.89,19.73,81,25q22.005,0.495,44,1c14.05,2.05,34.54,1.73,44-4,3.37-18.58,55.09-28.55,78-17q7.5,9.495,15,19,20.505,7.995,41,16c95.33,30.68,334.15,53.92,388-23,20.48-29.25,1.31-61.59-6-86-3.47-11.59.01-16.88-8-23-16.81-12.85-41.25-28.17-63-34-32.94-8.84-65.4-8.59-95-17-47.37-13.45-92.25-32.14-133-52Q3212,5958,3196,5951q-6-9.495-12-19c-19.33-24.39-42.63-46.5-57-76,5.22-14.43,12.77-56.89,1-74-5.37-7.8-19.59-11.25-28-16q-9.495-87.99-19-176c-6.75-42.36-3.13-123.95,3-162q1.005-26.49,2-53c5.71-35.69,6.93-74.09,13-108q2.505-38.49,5-77c16.1-87.12,13.32-176.74,30-262,9.43-48.19,14.66-102.61,27-147q3.495-19.005,7-38c17.78-40.71,56.02-94.21,51-151,15.54-10.92,28.3-28.77,22-58q-2.505-9.495-5-19c8.68-29.07,32.62-53.8,52-78,7.12-8.9,23.77-20.44,20-39-11.37-56.07-39.77-101.19-51-155q-7.5-84.495-15-169c-6.07-36.76,3.73-79.89-2-114v-52q-19.995-223.485-40-447c0.03-4.07,5.38-10.54,6-17q-9.495-121.995-19-244c-15.81-83.76-39.07-154.49-64-231-5.38-16.5-29.04-68.68-22-84,30.1,18.56,64.35,30.83,106,38,19.6,3.37,36.43-3.4,52-4v1c-5.54,13.76-13.7,16.97-22,27q3.495,11.505,7,23c-1.67,18.9-21.47,33.67-25,54l3,51c-1.98,8.19-11.12,16.77-7,28,1.71,3.88,3.16,5.25,7,7,11.74,5.71,30.55-5.82,35-14,9.17-16.86,8.27-45.98,18-62l20-17c5.4-5.74,4.85-9.34,13-13,5.54,6.39,5.99,18.16,6,30,0.06,45.61-13.88,52.8-40,71,0.66,9.98,4.09,15.35,1,24-17.63-.66-37.95-9.96-55-3-7.73,3.1-10.93,9.27-14,17,1.17,13.09,16.93,48.37,28,52,0,0,54.72-3.08,59-4q7.5-2.505,15-5c7.07,1.65,6.37,5.05,15,7,15.58,3.51,22.72-5.56,31-9q12.495-1.995,25-4c17.27-7.57,30.35-26.15,44-38q22.5-12.495,45-25c7.08-5.52,7.08-15.99,10-26q5.505-7.995,11-16-4.005-28.995-8-58,7.995-60,16-120c2.84-10.47,12.1-19.21,15-28q-1.5-9.495-3-19c9.01-16.52,38.15-16.02,51-29v-1c-9.59-9.86-21.07-17.46-33-25-0.19-43.6-9.34-97.14-2-144,5.66-36.11.94-71.35,7-109v-43c8.03-51.93,4.88-134.22-3-183q-1.995-68.49-4-137c-13.96-72.5-74.31-104.7-104-163-40.92-80.35-72.42-166.37-121-240-30.25-45.84-70.07-84.96-100-130q-33-60.495-66-121c-6.73-8.33-24.09-8.3-32-14,0.67,1.67,1.33,3.33,2,5-19.39-15.76.73-29.76,4-47q-6-9.495-12-19c-40.37-.16-81.83-4.47-120,4-15,3.33-21.87-7.47-32-5,5.99-16.47,54.88-40.79,70-53l12-21c-2.8-34.95-57.76-107.78-77-138q-10.995-16.005-22-32,7.5-38.49,15-77,9.495-77.985,19-156c4.98-26.238,14.81-62.3,9-90-3.68-17.557,10.74-39.972,6-57-17.98-4.947-23.21-40.191-30-57q-21.495-58.494-43-117c-2.57-22.671-2.29-45.712-5-65q-5.505-5.5-11-11l-30,16c-6.05,1.852-36.76-11.868-44-14-54.4-16.02-94.97-8.378-122-55C2687.67,521.333,2684.33,520.667,2681,520Zm322,1363c21.66,4.17,57.17,70.24,71,89,23.08,31.31,50.5,59.16,76,88,18.96,21.44,37.69,46.1,60,64,23.75,19.06,54.89,36.54,72,62q4.995,13.005,10,26,4.5,5.505,9,11-1.995,36.495-4,73c9.48,60.72,9.55,118.48,31,166-0.33.67-.67,1.33-1,2h-4c-14.17-12.08-36.32-15.56-56-22-102.22-33.42-202.82,27.52-245,85-10.8,14.71-14.66,33.32-24,50-0.67-1-1.33-2-2-3q-13.5-102.99-27-206-16.995-54.495-34-109l-18-33c-6.31-25.35,9.22-76.17,14-98q13.995-94.995,28-190c4.79-8.99,11.5-22.62,18-31Q2990.005,1895,3003,1883Zm0,42c-21.02,29.74-21.13,75.01-30,118q-13.5,86.985-27,174,7.995,13.005,16,26l18,69c15.31,49.23,34.18,112.61,36,176l29-29c57.83-42.71,147.4-70.67,238-46-5.26-34.17-10.14-73.04-16-112l3-69c-10.03-39.78-49.87-61.45-78-84q-24-24.99-48-50c-27.4-33.94-60.46-63.69-87-99Q3030,1962.01,3003,1925ZM2000,2056c9.1,5.32,38.34,63.93,47,77Q2073,2171,2099,2209c7.54,10.04,20.95,20.27,25,33q1.995,21.495,4,43c8.88,49.58,5.58,104.56,14,157q0.495,29.49,1,59,2.505,55.5,5,111c2.38,13.51,14.23,26.27,10,42-8.85,32.9-22.07,67.12-37,95-10.37,19.37-26.54,42.52-29,69,9.25,8.25,12.31,20.08,20,30,10.02,12.94,40.92,35.27,45,51,8.36,32.2-23.16,132.71-35,150l-16,16c-13.29-5.32-30.04-4.18-43,0q-6,13.995-12,28-3,92.985-6,186c0,28.8-3.21,69.83,8,90,1-.67,2-1.33,3-2,4.03-10.5,10.37-17.94,14-30,6.77,0.53,12.24,1.23,15,6,3.57,11.88-7.73,33.2-12,43-12.61,28.95-17.44,68.68-25,103-3.68,16.7-.5,45.88-10,58l-278-242c6.65-11.95,17.39-20.7,24-32-1.71-12.47-10.53-17.8-11-31-0.88-24.77,8.96-54.74,14-78-9.02-10.26-25.28-13.91-34-24-2.66-3.08-22.52-39.34-22-42,1-5.17,7.46-9.96,6-18-1.27-6.97-6.03-13.24-7-23q8.505-10.5,17-21c-3.67-19.04-28.26-18.95-33-38-6.57-26.42,9.68-71.37,14-92v-25c6.89-23.76,9.35-49.83,19-72q18-33.495,36-67c18.74-42.33,29.58-88.04,40-133,8.41-36.31,11.01-78.19,11-122-0.01-19.4-9.99-43.19,0-49,2.96-17.35,8.21-24.93,14-39v-29q9-24.99,18-50,6.495-6,13-12,9-22.995,18-46,23.505-40.5,47-81C1966.89,2142.31,1977.66,2096.33,2000,2056Zm5,68c-13.49,49.74-48.3,91.15-71,133q-10.995,26.49-22,53c-4.47,9.69-18.9,22.4-21,31-9.09,37.27-9.39,84.45-30,112,13.27,120.84-17.53,229.19-55,312-16.65,36.8-36.1,64.74-45,110q-7.5,45.99-15,92c5.23,33.79,53.48,64.04,17,97,7.3,21.67-.39,37.47,12,54,10.61,14.15,33.97,14.54,40,34,6.27,20.21-5.55,33.71-9,50-2.94,13.89.48,27.19-1,38-0.99,7.27,5.08,11.88,7,17,7.02,18.67-2.5,32.83-11,44q108.495,93.99,217,188h1c0.21-29.5,9.06-69.49,19-94-24.86-27.07-14.69-46.85-22-91-5.24-31.69-1.94-60.49,3-93q-0.495-62.49-1-125c1.74-12.86,11.94-28.36,19-38,10.89-14.86,33.71-17.27,60-17,4.81-22.96,39.81-95.56,30-122-8.67-23.38-70.05-61.46-64-96,9.89-56.46,58.39-103,62-162q-4.5-20.505-9-41c-5.22-33.71,1.14-74.86-4-107v-53c-8.82-54.03-4.79-111.77-15-162q-1.5-18.495-3-37l-51-69Q2024,2153.005,2005,2124Zm1140,817q21,66.99,42,134c0.67-.33,1.33-0.67,2-1,3.74-18.03-4.12-36.23,0-57,3.91-19.71,13.71-34.79,22-50l-3-15C3182.81,2952.3,3165.67,2944.54,3145,2941Z"/>
</svg>
